# xmcd
#
# Track frame offsets:
#	150
#	20309
#	34081
#	48157
#	66738
#	83227
#	96544
#	114595
#	131894
#	153466
#	171712
#	187895
#	204290
#	230668
#
# Disc length: 4773 seconds
#
# Revision: 1
# Processed by: cddbd v1.5.2PL0 Copyright (c) Steve Scherf et al.
# Submitted via: audiograbber 1.83.01
#
DISCID=c812a30e
DTITLE=Cornamusa - get on the train
DYEAR=2008
DGENRE=Rock
TTITLE0=Very joining dream
TTITLE1=Someday
TTITLE2=Hey Boy
TTITLE3=My way to say i'm sorry
TTITLE4=Rise up
TTITLE5=Evil song
TTITLE6=Here we are
TTITLE7=Princess of the night
TTITLE8=Seize the day
TTITLE9=The game
TTITLE10=I'm not bad
TTITLE11=Trouble
TTITLE12=Final Fight
TTITLE13=Daten-CD
EXTD=
EXTT0=
EXTT1=
EXTT2=
EXTT3=
EXTT4=
EXTT5=
EXTT6=
EXTT7=
EXTT8=
EXTT9=
EXTT10=
EXTT11=
EXTT12=
EXTT13=
PLAYORDER=
